<?xml version="1.0" encoding="UTF-8"?>
<svg xmlns="http://www.w3.org/2000/svg" xmlns:xlink="http://www.w3.org/1999/xlink" viewBox="0 0 24 24" width="24px" height="24px">
<g id="surface35173821">
<path style="fill-rule:nonzero;fill:rgb(40.000001%,40.000001%,40.000001%);fill-opacity:1;stroke-width:6;stroke-linecap:butt;stroke-linejoin:round;stroke:rgb(55.29412%,57.254905%,63.921571%);stroke-opacity:1;stroke-miterlimit:10;" d="M 131.87552 74.523873 C 131.87552 88.260447 126.977881 100.895777 118.892429 110.777996 L 153.117944 145.003512 C 154.62491 146.452518 155.233493 148.597047 154.711851 150.596674 C 154.161229 152.596302 152.596302 154.161229 150.596674 154.711851 C 148.597047 155.233493 146.452518 154.62491 145.003512 153.117944 L 110.777996 118.892429 C 100.895777 126.977881 88.260447 131.87552 74.523873 131.87552 C 42.935547 131.87552 17.201205 106.141178 17.201205 74.523873 C 17.201205 42.935547 42.935547 17.201205 74.523873 17.201205 C 106.141178 17.201205 131.87552 42.935547 131.87552 74.523873 Z M 28.677331 74.523873 C 28.677331 99.939433 49.137292 120.399395 74.523873 120.399395 C 99.939433 120.399395 120.399395 99.939433 120.399395 74.523873 C 120.399395 49.137292 99.939433 28.677331 74.523873 28.677331 C 49.137292 28.677331 28.677331 49.137292 28.677331 74.523873 Z M 28.677331 74.523873 " transform="matrix(0.134791,0,0,0.134791,0.408,0.408)"/>
<path style=" stroke:none;fill-rule:nonzero;fill:rgb(55.29412%,57.254905%,63.921571%);fill-opacity:1;" d="M 10.453125 2.726562 C 6.195312 2.726562 2.726562 6.195312 2.726562 10.453125 C 2.726562 14.714844 6.195312 18.183594 10.453125 18.183594 C 12.304688 18.183594 14.007812 17.523438 15.339844 16.433594 L 19.953125 21.046875 C 20.148438 21.25 20.4375 21.332031 20.707031 21.261719 C 20.976562 21.1875 21.1875 20.976562 21.261719 20.707031 C 21.332031 20.4375 21.25 20.148438 21.046875 19.953125 L 16.433594 15.339844 C 17.523438 14.007812 18.183594 12.304688 18.183594 10.453125 C 18.183594 6.195312 14.714844 2.726562 10.453125 2.726562 Z M 10.453125 4.273438 C 13.878906 4.273438 16.636719 7.03125 16.636719 10.453125 C 16.636719 13.878906 13.878906 16.636719 10.453125 16.636719 C 7.03125 16.636719 4.273438 13.878906 4.273438 10.453125 C 4.273438 7.03125 7.03125 4.273438 10.453125 4.273438 Z M 10.453125 4.273438 "/>
</g>
</svg>
